<svg xmlns="http://www.w3.org/2000/svg" width="256" height="64"><rect x="0" y="0" width="8" height="8" style="fill: rgb(199,6,9); stroke: black; stroke-width: 1px;"></rect><rect x="8" y="0" width="8" height="8" style="fill: rgb(255,127,2); stroke: black; stroke-width: 1px;"></rect><rect x="16" y="0" width="8" height="8" style="fill: rgb(199,6,9); stroke: black; stroke-width: 1px;"></rect><rect x="24" y="0" width="8" height="8" style="fill: rgb(255,127,2); stroke: black; stroke-width: 1px;"></rect><rect x="32" y="0" width="8" height="8" style="fill: rgb(199,6,9); stroke: black; stroke-width: 1px;"></rect><rect x="40" y="0" width="8" height="8" style="fill: rgb(199,6,9); stroke: black; stroke-width: 1px;"></rect><rect x="48" y="0" width="8" height="8" style="fill: rgb(199,6,9); stroke: black; stroke-width: 1px;"></rect><rect x="56" y="0" width="8" height="8" style="fill: rgb(199,6,9); stroke: black; stroke-width: 1px;"></rect><rect x="64" y="0" width="8" height="8" style="fill: rgb(199,6,9); stroke: black; stroke-width: 1px;"></rect><rect x="72" y="0" width="8" height="8" style="fill: rgb(199,6,9); stroke: black; stroke-width: 1px;"></rect><rect x="80" y="0" width="8" height="8" style="fill: rgb(199,6,9); stroke: black; stroke-width: 1px;"></rect><rect x="88" y="0" width="8" height="8" style="fill: rgb(199,6,9); stroke: black; stroke-width: 1px;"></rect><rect x="96" y="0" width="8" height="8" style="fill: rgb(199,6,9); stroke: black; stroke-width: 1px;"></rect><rect x="104" y="0" width="8" height="8" style="fill: rgb(199,6,9); stroke: black; stroke-width: 1px;"></rect><rect x="112" y="0" width="8" height="8" style="fill: rgb(199,6,9); stroke: black; stroke-width: 1px;"></rect><rect x="120" y="0" width="8" height="8" style="fill: rgb(199,6,9); stroke: black; stroke-width: 1px;"></rect><rect x="128" y="0" width="8" height="8" style="fill: rgb(166,139,61); stroke: black; stroke-width: 1px;"></rect><rect x="136" y="0" width="8" height="8" style="fill: rgb(166,139,61); stroke: black; stroke-width: 1px;"></rect><rect x="144" y="0" width="8" height="8" style="fill: rgb(166,139,61); stroke: black; stroke-width: 1px;"></rect><rect x="152" y="0" width="8" height="8" style="fill: rgb(166,139,61); stroke: black; stroke-width: 1px;"></rect><rect x="160" y="0" width="8" height="8" style="fill: rgb(166,139,61); stroke: black; stroke-width: 1px;"></rect><rect x="168" y="0" width="8" height="8" style="fill: rgb(166,139,61); stroke: black; stroke-width: 1px;"></rect><rect x="176" y="0" width="8" height="8" style="fill: rgb(166,139,61); stroke: black; stroke-width: 1px;"></rect><rect x="184" y="0" width="8" height="8" style="fill: rgb(166,139,61); stroke: black; stroke-width: 1px;"></rect><rect x="192" y="0" width="8" height="8" style="fill: rgb(166,139,61); stroke: black; stroke-width: 1px;"></rect><rect x="200" y="0" width="8" height="8" style="fill: rgb(166,139,61); stroke: black; stroke-width: 1px;"></rect><rect x="208" y="0" width="8" height="8" style="fill: rgb(166,139,61); stroke: black; stroke-width: 1px;"></rect><rect x="216" y="0" width="8" height="8" style="fill: rgb(166,139,61); stroke: black; stroke-width: 1px;"></rect><rect x="224" y="0" width="8" height="8" style="fill: rgb(0,0,0); stroke: black; stroke-width: 1px;"></rect><rect x="232" y="0" width="8" height="8" style="fill: rgb(166,139,61); stroke: black; stroke-width: 1px;"></rect><rect x="240" y="0" width="8" height="8" style="fill: rgb(0,0,0); stroke: black; stroke-width: 1px;"></rect><rect x="248" y="0" width="8" height="8" style="fill: rgb(166,139,61); stroke: black; stroke-width: 1px;"></rect><rect x="0" y="8" width="8" height="8" style="fill: rgb(199,6,9); stroke: black; stroke-width: 1px;"></rect><rect x="8" y="8" width="8" height="8" style="fill: rgb(255,127,2); stroke: black; stroke-width: 1px;"></rect><rect x="16" y="8" width="8" height="8" style="fill: rgb(199,6,9); stroke: black; stroke-width: 1px;"></rect><rect x="24" y="8" width="8" height="8" style="fill: rgb(255,127,2); stroke: black; stroke-width: 1px;"></rect><rect x="32" y="8" width="8" height="8" style="fill: rgb(199,6,9); stroke: black; stroke-width: 1px;"></rect><rect x="40" y="8" width="8" height="8" style="fill: rgb(199,6,9); stroke: black; stroke-width: 1px;"></rect><rect x="48" y="8" width="8" height="8" style="fill: rgb(199,6,9); stroke: black; stroke-width: 1px;"></rect><rect x="56" y="8" width="8" height="8" style="fill: rgb(255,255,255); stroke: black; stroke-width: 1px;"></rect><rect x="64" y="8" width="8" height="8" style="fill: rgb(255,255,255); stroke: black; stroke-width: 1px;"></rect><rect x="72" y="8" width="8" height="8" style="fill: rgb(255,255,255); stroke: black; stroke-width: 1px;"></rect><rect x="80" y="8" width="8" height="8" style="fill: rgb(199,6,9); stroke: black; stroke-width: 1px;"></rect><rect x="88" y="8" width="8" height="8" style="fill: rgb(255,255,255); stroke: black; stroke-width: 1px;"></rect><rect x="96" y="8" width="8" height="8" style="fill: rgb(199,6,9); stroke: black; stroke-width: 1px;"></rect><rect x="104" y="8" width="8" height="8" style="fill: rgb(255,255,255); stroke: black; stroke-width: 1px;"></rect><rect x="112" y="8" width="8" height="8" style="fill: rgb(199,6,9); stroke: black; stroke-width: 1px;"></rect><rect x="120" y="8" width="8" height="8" style="fill: rgb(199,6,9); stroke: black; stroke-width: 1px;"></rect><rect x="128" y="8" width="8" height="8" style="fill: rgb(166,139,61); stroke: black; stroke-width: 1px;"></rect><rect x="136" y="8" width="8" height="8" style="fill: rgb(166,139,61); stroke: black; stroke-width: 1px;"></rect><rect x="144" y="8" width="8" height="8" style="fill: rgb(255,255,255); stroke: black; stroke-width: 1px;"></rect><rect x="152" y="8" width="8" height="8" style="fill: rgb(255,255,255); stroke: black; stroke-width: 1px;"></rect><rect x="160" y="8" width="8" height="8" style="fill: rgb(255,255,255); stroke: black; stroke-width: 1px;"></rect><rect x="168" y="8" width="8" height="8" style="fill: rgb(166,139,61); stroke: black; stroke-width: 1px;"></rect><rect x="176" y="8" width="8" height="8" style="fill: rgb(255,255,255); stroke: black; stroke-width: 1px;"></rect><rect x="184" y="8" width="8" height="8" style="fill: rgb(255,255,255); stroke: black; stroke-width: 1px;"></rect><rect x="192" y="8" width="8" height="8" style="fill: rgb(255,255,255); stroke: black; stroke-width: 1px;"></rect><rect x="200" y="8" width="8" height="8" style="fill: rgb(166,139,61); stroke: black; stroke-width: 1px;"></rect><rect x="208" y="8" width="8" height="8" style="fill: rgb(166,139,61); stroke: black; stroke-width: 1px;"></rect><rect x="216" y="8" width="8" height="8" style="fill: rgb(166,139,61); stroke: black; stroke-width: 1px;"></rect><rect x="224" y="8" width="8" height="8" style="fill: rgb(0,0,0); stroke: black; stroke-width: 1px;"></rect><rect x="232" y="8" width="8" height="8" style="fill: rgb(166,139,61); stroke: black; stroke-width: 1px;"></rect><rect x="240" y="8" width="8" height="8" style="fill: rgb(0,0,0); stroke: black; stroke-width: 1px;"></rect><rect x="248" y="8" width="8" height="8" style="fill: rgb(166,139,61); stroke: black; stroke-width: 1px;"></rect><rect x="0" y="16" width="8" height="8" style="fill: rgb(199,6,9); stroke: black; stroke-width: 1px;"></rect><rect x="8" y="16" width="8" height="8" style="fill: rgb(255,127,2); stroke: black; stroke-width: 1px;"></rect><rect x="16" y="16" width="8" height="8" style="fill: rgb(199,6,9); stroke: black; stroke-width: 1px;"></rect><rect x="24" y="16" width="8" height="8" style="fill: rgb(255,127,2); stroke: black; stroke-width: 1px;"></rect><rect x="32" y="16" width="8" height="8" style="fill: rgb(199,6,9); stroke: black; stroke-width: 1px;"></rect><rect x="40" y="16" width="8" height="8" style="fill: rgb(199,6,9); stroke: black; stroke-width: 1px;"></rect><rect x="48" y="16" width="8" height="8" style="fill: rgb(199,6,9); stroke: black; stroke-width: 1px;"></rect><rect x="56" y="16" width="8" height="8" style="fill: rgb(199,6,9); stroke: black; stroke-width: 1px;"></rect><rect x="64" y="16" width="8" height="8" style="fill: rgb(199,6,9); stroke: black; stroke-width: 1px;"></rect><rect x="72" y="16" width="8" height="8" style="fill: rgb(255,255,255); stroke: black; stroke-width: 1px;"></rect><rect x="80" y="16" width="8" height="8" style="fill: rgb(199,6,9); stroke: black; stroke-width: 1px;"></rect><rect x="88" y="16" width="8" height="8" style="fill: rgb(255,255,255); stroke: black; stroke-width: 1px;"></rect><rect x="96" y="16" width="8" height="8" style="fill: rgb(199,6,9); stroke: black; stroke-width: 1px;"></rect><rect x="104" y="16" width="8" height="8" style="fill: rgb(255,255,255); stroke: black; stroke-width: 1px;"></rect><rect x="112" y="16" width="8" height="8" style="fill: rgb(199,6,9); stroke: black; stroke-width: 1px;"></rect><rect x="120" y="16" width="8" height="8" style="fill: rgb(199,6,9); stroke: black; stroke-width: 1px;"></rect><rect x="128" y="16" width="8" height="8" style="fill: rgb(166,139,61); stroke: black; stroke-width: 1px;"></rect><rect x="136" y="16" width="8" height="8" style="fill: rgb(166,139,61); stroke: black; stroke-width: 1px;"></rect><rect x="144" y="16" width="8" height="8" style="fill: rgb(166,139,61); stroke: black; stroke-width: 1px;"></rect><rect x="152" y="16" width="8" height="8" style="fill: rgb(166,139,61); stroke: black; stroke-width: 1px;"></rect><rect x="160" y="16" width="8" height="8" style="fill: rgb(255,255,255); stroke: black; stroke-width: 1px;"></rect><rect x="168" y="16" width="8" height="8" style="fill: rgb(166,139,61); stroke: black; stroke-width: 1px;"></rect><rect x="176" y="16" width="8" height="8" style="fill: rgb(255,255,255); stroke: black; stroke-width: 1px;"></rect><rect x="184" y="16" width="8" height="8" style="fill: rgb(166,139,61); stroke: black; stroke-width: 1px;"></rect><rect x="192" y="16" width="8" height="8" style="fill: rgb(166,139,61); stroke: black; stroke-width: 1px;"></rect><rect x="200" y="16" width="8" height="8" style="fill: rgb(166,139,61); stroke: black; stroke-width: 1px;"></rect><rect x="208" y="16" width="8" height="8" style="fill: rgb(166,139,61); stroke: black; stroke-width: 1px;"></rect><rect x="216" y="16" width="8" height="8" style="fill: rgb(166,139,61); stroke: black; stroke-width: 1px;"></rect><rect x="224" y="16" width="8" height="8" style="fill: rgb(0,0,0); stroke: black; stroke-width: 1px;"></rect><rect x="232" y="16" width="8" height="8" style="fill: rgb(166,139,61); stroke: black; stroke-width: 1px;"></rect><rect x="240" y="16" width="8" height="8" style="fill: rgb(0,0,0); stroke: black; stroke-width: 1px;"></rect><rect x="248" y="16" width="8" height="8" style="fill: rgb(166,139,61); stroke: black; stroke-width: 1px;"></rect><rect x="0" y="24" width="8" height="8" style="fill: rgb(199,6,9); stroke: black; stroke-width: 1px;"></rect><rect x="8" y="24" width="8" height="8" style="fill: rgb(255,127,2); stroke: black; stroke-width: 1px;"></rect><rect x="16" y="24" width="8" height="8" style="fill: rgb(199,6,9); stroke: black; stroke-width: 1px;"></rect><rect x="24" y="24" width="8" height="8" style="fill: rgb(255,127,2); stroke: black; stroke-width: 1px;"></rect><rect x="32" y="24" width="8" height="8" style="fill: rgb(199,6,9); stroke: black; stroke-width: 1px;"></rect><rect x="40" y="24" width="8" height="8" style="fill: rgb(199,6,9); stroke: black; stroke-width: 1px;"></rect><rect x="48" y="24" width="8" height="8" style="fill: rgb(199,6,9); stroke: black; stroke-width: 1px;"></rect><rect x="56" y="24" width="8" height="8" style="fill: rgb(255,255,255); stroke: black; stroke-width: 1px;"></rect><rect x="64" y="24" width="8" height="8" style="fill: rgb(255,255,255); stroke: black; stroke-width: 1px;"></rect><rect x="72" y="24" width="8" height="8" style="fill: rgb(255,255,255); stroke: black; stroke-width: 1px;"></rect><rect x="80" y="24" width="8" height="8" style="fill: rgb(199,6,9); stroke: black; stroke-width: 1px;"></rect><rect x="88" y="24" width="8" height="8" style="fill: rgb(255,255,255); stroke: black; stroke-width: 1px;"></rect><rect x="96" y="24" width="8" height="8" style="fill: rgb(255,255,255); stroke: black; stroke-width: 1px;"></rect><rect x="104" y="24" width="8" height="8" style="fill: rgb(255,255,255); stroke: black; stroke-width: 1px;"></rect><rect x="112" y="24" width="8" height="8" style="fill: rgb(199,6,9); stroke: black; stroke-width: 1px;"></rect><rect x="120" y="24" width="8" height="8" style="fill: rgb(255,255,255); stroke: black; stroke-width: 1px;"></rect><rect x="128" y="24" width="8" height="8" style="fill: rgb(255,255,255); stroke: black; stroke-width: 1px;"></rect><rect x="136" y="24" width="8" height="8" style="fill: rgb(166,139,61); stroke: black; stroke-width: 1px;"></rect><rect x="144" y="24" width="8" height="8" style="fill: rgb(255,255,255); stroke: black; stroke-width: 1px;"></rect><rect x="152" y="24" width="8" height="8" style="fill: rgb(255,255,255); stroke: black; stroke-width: 1px;"></rect><rect x="160" y="24" width="8" height="8" style="fill: rgb(255,255,255); stroke: black; stroke-width: 1px;"></rect><rect x="168" y="24" width="8" height="8" style="fill: rgb(166,139,61); stroke: black; stroke-width: 1px;"></rect><rect x="176" y="24" width="8" height="8" style="fill: rgb(255,255,255); stroke: black; stroke-width: 1px;"></rect><rect x="184" y="24" width="8" height="8" style="fill: rgb(255,255,255); stroke: black; stroke-width: 1px;"></rect><rect x="192" y="24" width="8" height="8" style="fill: rgb(255,255,255); stroke: black; stroke-width: 1px;"></rect><rect x="200" y="24" width="8" height="8" style="fill: rgb(166,139,61); stroke: black; stroke-width: 1px;"></rect><rect x="208" y="24" width="8" height="8" style="fill: rgb(166,139,61); stroke: black; stroke-width: 1px;"></rect><rect x="216" y="24" width="8" height="8" style="fill: rgb(166,139,61); stroke: black; stroke-width: 1px;"></rect><rect x="224" y="24" width="8" height="8" style="fill: rgb(0,0,0); stroke: black; stroke-width: 1px;"></rect><rect x="232" y="24" width="8" height="8" style="fill: rgb(166,139,61); stroke: black; stroke-width: 1px;"></rect><rect x="240" y="24" width="8" height="8" style="fill: rgb(0,0,0); stroke: black; stroke-width: 1px;"></rect><rect x="248" y="24" width="8" height="8" style="fill: rgb(166,139,61); stroke: black; stroke-width: 1px;"></rect><rect x="0" y="32" width="8" height="8" style="fill: rgb(199,6,9); stroke: black; stroke-width: 1px;"></rect><rect x="8" y="32" width="8" height="8" style="fill: rgb(255,127,2); stroke: black; stroke-width: 1px;"></rect><rect x="16" y="32" width="8" height="8" style="fill: rgb(199,6,9); stroke: black; stroke-width: 1px;"></rect><rect x="24" y="32" width="8" height="8" style="fill: rgb(255,127,2); stroke: black; stroke-width: 1px;"></rect><rect x="32" y="32" width="8" height="8" style="fill: rgb(199,6,9); stroke: black; stroke-width: 1px;"></rect><rect x="40" y="32" width="8" height="8" style="fill: rgb(199,6,9); stroke: black; stroke-width: 1px;"></rect><rect x="48" y="32" width="8" height="8" style="fill: rgb(199,6,9); stroke: black; stroke-width: 1px;"></rect><rect x="56" y="32" width="8" height="8" style="fill: rgb(255,255,255); stroke: black; stroke-width: 1px;"></rect><rect x="64" y="32" width="8" height="8" style="fill: rgb(199,6,9); stroke: black; stroke-width: 1px;"></rect><rect x="72" y="32" width="8" height="8" style="fill: rgb(199,6,9); stroke: black; stroke-width: 1px;"></rect><rect x="80" y="32" width="8" height="8" style="fill: rgb(199,6,9); stroke: black; stroke-width: 1px;"></rect><rect x="88" y="32" width="8" height="8" style="fill: rgb(199,6,9); stroke: black; stroke-width: 1px;"></rect><rect x="96" y="32" width="8" height="8" style="fill: rgb(199,6,9); stroke: black; stroke-width: 1px;"></rect><rect x="104" y="32" width="8" height="8" style="fill: rgb(255,255,255); stroke: black; stroke-width: 1px;"></rect><rect x="112" y="32" width="8" height="8" style="fill: rgb(199,6,9); stroke: black; stroke-width: 1px;"></rect><rect x="120" y="32" width="8" height="8" style="fill: rgb(199,6,9); stroke: black; stroke-width: 1px;"></rect><rect x="128" y="32" width="8" height="8" style="fill: rgb(166,139,61); stroke: black; stroke-width: 1px;"></rect><rect x="136" y="32" width="8" height="8" style="fill: rgb(166,139,61); stroke: black; stroke-width: 1px;"></rect><rect x="144" y="32" width="8" height="8" style="fill: rgb(255,255,255); stroke: black; stroke-width: 1px;"></rect><rect x="152" y="32" width="8" height="8" style="fill: rgb(166,139,61); stroke: black; stroke-width: 1px;"></rect><rect x="160" y="32" width="8" height="8" style="fill: rgb(166,139,61); stroke: black; stroke-width: 1px;"></rect><rect x="168" y="32" width="8" height="8" style="fill: rgb(166,139,61); stroke: black; stroke-width: 1px;"></rect><rect x="176" y="32" width="8" height="8" style="fill: rgb(255,255,255); stroke: black; stroke-width: 1px;"></rect><rect x="184" y="32" width="8" height="8" style="fill: rgb(166,139,61); stroke: black; stroke-width: 1px;"></rect><rect x="192" y="32" width="8" height="8" style="fill: rgb(255,255,255); stroke: black; stroke-width: 1px;"></rect><rect x="200" y="32" width="8" height="8" style="fill: rgb(166,139,61); stroke: black; stroke-width: 1px;"></rect><rect x="208" y="32" width="8" height="8" style="fill: rgb(166,139,61); stroke: black; stroke-width: 1px;"></rect><rect x="216" y="32" width="8" height="8" style="fill: rgb(166,139,61); stroke: black; stroke-width: 1px;"></rect><rect x="224" y="32" width="8" height="8" style="fill: rgb(0,0,0); stroke: black; stroke-width: 1px;"></rect><rect x="232" y="32" width="8" height="8" style="fill: rgb(166,139,61); stroke: black; stroke-width: 1px;"></rect><rect x="240" y="32" width="8" height="8" style="fill: rgb(0,0,0); stroke: black; stroke-width: 1px;"></rect><rect x="248" y="32" width="8" height="8" style="fill: rgb(166,139,61); stroke: black; stroke-width: 1px;"></rect><rect x="0" y="40" width="8" height="8" style="fill: rgb(199,6,9); stroke: black; stroke-width: 1px;"></rect><rect x="8" y="40" width="8" height="8" style="fill: rgb(255,127,2); stroke: black; stroke-width: 1px;"></rect><rect x="16" y="40" width="8" height="8" style="fill: rgb(199,6,9); stroke: black; stroke-width: 1px;"></rect><rect x="24" y="40" width="8" height="8" style="fill: rgb(255,127,2); stroke: black; stroke-width: 1px;"></rect><rect x="32" y="40" width="8" height="8" style="fill: rgb(199,6,9); stroke: black; stroke-width: 1px;"></rect><rect x="40" y="40" width="8" height="8" style="fill: rgb(199,6,9); stroke: black; stroke-width: 1px;"></rect><rect x="48" y="40" width="8" height="8" style="fill: rgb(199,6,9); stroke: black; stroke-width: 1px;"></rect><rect x="56" y="40" width="8" height="8" style="fill: rgb(255,255,255); stroke: black; stroke-width: 1px;"></rect><rect x="64" y="40" width="8" height="8" style="fill: rgb(255,255,255); stroke: black; stroke-width: 1px;"></rect><rect x="72" y="40" width="8" height="8" style="fill: rgb(255,255,255); stroke: black; stroke-width: 1px;"></rect><rect x="80" y="40" width="8" height="8" style="fill: rgb(199,6,9); stroke: black; stroke-width: 1px;"></rect><rect x="88" y="40" width="8" height="8" style="fill: rgb(199,6,9); stroke: black; stroke-width: 1px;"></rect><rect x="96" y="40" width="8" height="8" style="fill: rgb(199,6,9); stroke: black; stroke-width: 1px;"></rect><rect x="104" y="40" width="8" height="8" style="fill: rgb(255,255,255); stroke: black; stroke-width: 1px;"></rect><rect x="112" y="40" width="8" height="8" style="fill: rgb(199,6,9); stroke: black; stroke-width: 1px;"></rect><rect x="120" y="40" width="8" height="8" style="fill: rgb(199,6,9); stroke: black; stroke-width: 1px;"></rect><rect x="128" y="40" width="8" height="8" style="fill: rgb(166,139,61); stroke: black; stroke-width: 1px;"></rect><rect x="136" y="40" width="8" height="8" style="fill: rgb(166,139,61); stroke: black; stroke-width: 1px;"></rect><rect x="144" y="40" width="8" height="8" style="fill: rgb(255,255,255); stroke: black; stroke-width: 1px;"></rect><rect x="152" y="40" width="8" height="8" style="fill: rgb(255,255,255); stroke: black; stroke-width: 1px;"></rect><rect x="160" y="40" width="8" height="8" style="fill: rgb(255,255,255); stroke: black; stroke-width: 1px;"></rect><rect x="168" y="40" width="8" height="8" style="fill: rgb(166,139,61); stroke: black; stroke-width: 1px;"></rect><rect x="176" y="40" width="8" height="8" style="fill: rgb(255,255,255); stroke: black; stroke-width: 1px;"></rect><rect x="184" y="40" width="8" height="8" style="fill: rgb(255,255,255); stroke: black; stroke-width: 1px;"></rect><rect x="192" y="40" width="8" height="8" style="fill: rgb(255,255,255); stroke: black; stroke-width: 1px;"></rect><rect x="200" y="40" width="8" height="8" style="fill: rgb(166,139,61); stroke: black; stroke-width: 1px;"></rect><rect x="208" y="40" width="8" height="8" style="fill: rgb(166,139,61); stroke: black; stroke-width: 1px;"></rect><rect x="216" y="40" width="8" height="8" style="fill: rgb(166,139,61); stroke: black; stroke-width: 1px;"></rect><rect x="224" y="40" width="8" height="8" style="fill: rgb(0,0,0); stroke: black; stroke-width: 1px;"></rect><rect x="232" y="40" width="8" height="8" style="fill: rgb(166,139,61); stroke: black; stroke-width: 1px;"></rect><rect x="240" y="40" width="8" height="8" style="fill: rgb(0,0,0); stroke: black; stroke-width: 1px;"></rect><rect x="248" y="40" width="8" height="8" style="fill: rgb(166,139,61); stroke: black; stroke-width: 1px;"></rect><rect x="0" y="48" width="8" height="8" style="fill: rgb(199,6,9); stroke: black; stroke-width: 1px;"></rect><rect x="8" y="48" width="8" height="8" style="fill: rgb(255,127,2); stroke: black; stroke-width: 1px;"></rect><rect x="16" y="48" width="8" height="8" style="fill: rgb(199,6,9); stroke: black; stroke-width: 1px;"></rect><rect x="24" y="48" width="8" height="8" style="fill: rgb(255,127,2); stroke: black; stroke-width: 1px;"></rect><rect x="32" y="48" width="8" height="8" style="fill: rgb(199,6,9); stroke: black; stroke-width: 1px;"></rect><rect x="40" y="48" width="8" height="8" style="fill: rgb(199,6,9); stroke: black; stroke-width: 1px;"></rect><rect x="48" y="48" width="8" height="8" style="fill: rgb(199,6,9); stroke: black; stroke-width: 1px;"></rect><rect x="56" y="48" width="8" height="8" style="fill: rgb(199,6,9); stroke: black; stroke-width: 1px;"></rect><rect x="64" y="48" width="8" height="8" style="fill: rgb(199,6,9); stroke: black; stroke-width: 1px;"></rect><rect x="72" y="48" width="8" height="8" style="fill: rgb(199,6,9); stroke: black; stroke-width: 1px;"></rect><rect x="80" y="48" width="8" height="8" style="fill: rgb(199,6,9); stroke: black; stroke-width: 1px;"></rect><rect x="88" y="48" width="8" height="8" style="fill: rgb(199,6,9); stroke: black; stroke-width: 1px;"></rect><rect x="96" y="48" width="8" height="8" style="fill: rgb(199,6,9); stroke: black; stroke-width: 1px;"></rect><rect x="104" y="48" width="8" height="8" style="fill: rgb(199,6,9); stroke: black; stroke-width: 1px;"></rect><rect x="112" y="48" width="8" height="8" style="fill: rgb(199,6,9); stroke: black; stroke-width: 1px;"></rect><rect x="120" y="48" width="8" height="8" style="fill: rgb(199,6,9); stroke: black; stroke-width: 1px;"></rect><rect x="128" y="48" width="8" height="8" style="fill: rgb(166,139,61); stroke: black; stroke-width: 1px;"></rect><rect x="136" y="48" width="8" height="8" style="fill: rgb(166,139,61); stroke: black; stroke-width: 1px;"></rect><rect x="144" y="48" width="8" height="8" style="fill: rgb(166,139,61); stroke: black; stroke-width: 1px;"></rect><rect x="152" y="48" width="8" height="8" style="fill: rgb(166,139,61); stroke: black; stroke-width: 1px;"></rect><rect x="160" y="48" width="8" height="8" style="fill: rgb(166,139,61); stroke: black; stroke-width: 1px;"></rect><rect x="168" y="48" width="8" height="8" style="fill: rgb(166,139,61); stroke: black; stroke-width: 1px;"></rect><rect x="176" y="48" width="8" height="8" style="fill: rgb(166,139,61); stroke: black; stroke-width: 1px;"></rect><rect x="184" y="48" width="8" height="8" style="fill: rgb(166,139,61); stroke: black; stroke-width: 1px;"></rect><rect x="192" y="48" width="8" height="8" style="fill: rgb(166,139,61); stroke: black; stroke-width: 1px;"></rect><rect x="200" y="48" width="8" height="8" style="fill: rgb(166,139,61); stroke: black; stroke-width: 1px;"></rect><rect x="208" y="48" width="8" height="8" style="fill: rgb(166,139,61); stroke: black; stroke-width: 1px;"></rect><rect x="216" y="48" width="8" height="8" style="fill: rgb(166,139,61); stroke: black; stroke-width: 1px;"></rect><rect x="224" y="48" width="8" height="8" style="fill: rgb(0,0,0); stroke: black; stroke-width: 1px;"></rect><rect x="232" y="48" width="8" height="8" style="fill: rgb(166,139,61); stroke: black; stroke-width: 1px;"></rect><rect x="240" y="48" width="8" height="8" style="fill: rgb(0,0,0); stroke: black; stroke-width: 1px;"></rect><rect x="248" y="48" width="8" height="8" style="fill: rgb(166,139,61); stroke: black; stroke-width: 1px;"></rect><rect x="0" y="56" width="8" height="8" style="fill: rgb(199,6,9); stroke: black; stroke-width: 1px;"></rect><rect x="8" y="56" width="8" height="8" style="fill: rgb(255,127,2); stroke: black; stroke-width: 1px;"></rect><rect x="16" y="56" width="8" height="8" style="fill: rgb(199,6,9); stroke: black; stroke-width: 1px;"></rect><rect x="24" y="56" width="8" height="8" style="fill: rgb(255,127,2); stroke: black; stroke-width: 1px;"></rect><rect x="32" y="56" width="8" height="8" style="fill: rgb(199,6,9); stroke: black; stroke-width: 1px;"></rect><rect x="40" y="56" width="8" height="8" style="fill: rgb(199,6,9); stroke: black; stroke-width: 1px;"></rect><rect x="48" y="56" width="8" height="8" style="fill: rgb(199,6,9); stroke: black; stroke-width: 1px;"></rect><rect x="56" y="56" width="8" height="8" style="fill: rgb(199,6,9); stroke: black; stroke-width: 1px;"></rect><rect x="64" y="56" width="8" height="8" style="fill: rgb(199,6,9); stroke: black; stroke-width: 1px;"></rect><rect x="72" y="56" width="8" height="8" style="fill: rgb(199,6,9); stroke: black; stroke-width: 1px;"></rect><rect x="80" y="56" width="8" height="8" style="fill: rgb(199,6,9); stroke: black; stroke-width: 1px;"></rect><rect x="88" y="56" width="8" height="8" style="fill: rgb(199,6,9); stroke: black; stroke-width: 1px;"></rect><rect x="96" y="56" width="8" height="8" style="fill: rgb(255,255,255); stroke: black; stroke-width: 1px;"></rect><rect x="104" y="56" width="8" height="8" style="fill: rgb(199,6,9); stroke: black; stroke-width: 1px;"></rect><rect x="112" y="56" width="8" height="8" style="fill: rgb(70,82,70); stroke: black; stroke-width: 1px;"></rect><rect x="120" y="56" width="8" height="8" style="fill: rgb(199,6,9); stroke: black; stroke-width: 1px;"></rect><rect x="128" y="56" width="8" height="8" style="fill: rgb(166,139,61); stroke: black; stroke-width: 1px;"></rect><rect x="136" y="56" width="8" height="8" style="fill: rgb(70,82,70); stroke: black; stroke-width: 1px;"></rect><rect x="144" y="56" width="8" height="8" style="fill: rgb(166,139,61); stroke: black; stroke-width: 1px;"></rect><rect x="152" y="56" width="8" height="8" style="fill: rgb(70,82,70); stroke: black; stroke-width: 1px;"></rect><rect x="160" y="56" width="8" height="8" style="fill: rgb(166,139,61); stroke: black; stroke-width: 1px;"></rect><rect x="168" y="56" width="8" height="8" style="fill: rgb(166,139,61); stroke: black; stroke-width: 1px;"></rect><rect x="176" y="56" width="8" height="8" style="fill: rgb(166,139,61); stroke: black; stroke-width: 1px;"></rect><rect x="184" y="56" width="8" height="8" style="fill: rgb(166,139,61); stroke: black; stroke-width: 1px;"></rect><rect x="192" y="56" width="8" height="8" style="fill: rgb(166,139,61); stroke: black; stroke-width: 1px;"></rect><rect x="200" y="56" width="8" height="8" style="fill: rgb(166,139,61); stroke: black; stroke-width: 1px;"></rect><rect x="208" y="56" width="8" height="8" style="fill: rgb(166,139,61); stroke: black; stroke-width: 1px;"></rect><rect x="216" y="56" width="8" height="8" style="fill: rgb(166,139,61); stroke: black; stroke-width: 1px;"></rect><rect x="224" y="56" width="8" height="8" style="fill: rgb(0,0,0); stroke: black; stroke-width: 1px;"></rect><rect x="232" y="56" width="8" height="8" style="fill: rgb(166,139,61); stroke: black; stroke-width: 1px;"></rect><rect x="240" y="56" width="8" height="8" style="fill: rgb(0,0,0); stroke: black; stroke-width: 1px;"></rect><rect x="248" y="56" width="8" height="8" style="fill: rgb(166,139,61); stroke: black; stroke-width: 1px;"></rect></svg>
