<?xml version="1.0" encoding="UTF-8" standalone="no"?>
<svg
   width="256"
   height="64"
   version="1.1"
   id="svg514"
   sodipodi:docname="table (1).svg"
   inkscape:version="1.2.2 (b0a8486, 2022-12-01)"
   xmlns:inkscape="http://www.inkscape.org/namespaces/inkscape"
   xmlns:sodipodi="http://sodipodi.sourceforge.net/DTD/sodipodi-0.dtd"
   xmlns="http://www.w3.org/2000/svg"
   xmlns:svg="http://www.w3.org/2000/svg">
  <defs
     id="defs518" />
  <sodipodi:namedview
     id="namedview516"
     pagecolor="#ffffff"
     bordercolor="#000000"
     borderopacity="0.25"
     inkscape:showpageshadow="2"
     inkscape:pageopacity="0.0"
     inkscape:pagecheckerboard="0"
     inkscape:deskcolor="#d1d1d1"
     showgrid="false"
     inkscape:zoom="3.6875"
     inkscape:cx="129.76271"
     inkscape:cy="33.355932"
     inkscape:window-width="1635"
     inkscape:window-height="566"
     inkscape:window-x="0"
     inkscape:window-y="25"
     inkscape:window-maximized="0"
     inkscape:current-layer="svg514" />
  <rect
     x="0"
     y="0"
     width="8"
     height="8"
     style="fill: rgb(199,6,9); stroke: black; stroke-width: 1px;"
     id="rect2" />
  <rect
     x="8"
     y="0"
     width="8"
     height="8"
     style="fill: rgb(255,127,2); stroke: black; stroke-width: 1px;"
     id="rect4" />
  <rect
     x="16"
     y="0"
     width="8"
     height="8"
     style="fill: rgb(199,6,9); stroke: black; stroke-width: 1px;"
     id="rect6" />
  <rect
     x="24"
     y="0"
     width="8"
     height="8"
     style="fill: rgb(255,127,2); stroke: black; stroke-width: 1px;"
     id="rect8" />
  <rect
     x="32"
     y="0"
     width="8"
     height="8"
     style="fill: rgb(199,6,9); stroke: black; stroke-width: 1px;"
     id="rect10" />
  <rect
     x="40"
     y="0"
     width="8"
     height="8"
     style="fill: rgb(199,6,9); stroke: black; stroke-width: 1px;"
     id="rect12" />
  <rect
     x="48"
     y="0"
     width="8"
     height="8"
     style="fill: rgb(199,6,9); stroke: black; stroke-width: 1px;"
     id="rect14" />
  <rect
     x="56"
     y="0"
     width="8"
     height="8"
     style="fill: rgb(199,6,9); stroke: black; stroke-width: 1px;"
     id="rect16" />
  <rect
     x="64"
     y="0"
     width="8"
     height="8"
     style="fill: rgb(199,6,9); stroke: black; stroke-width: 1px;"
     id="rect18" />
  <rect
     x="72"
     y="0"
     width="8"
     height="8"
     style="fill: rgb(199,6,9); stroke: black; stroke-width: 1px;"
     id="rect20" />
  <rect
     x="80"
     y="0"
     width="8"
     height="8"
     style="fill: rgb(199,6,9); stroke: black; stroke-width: 1px;"
     id="rect22" />
  <rect
     x="88"
     y="0"
     width="8"
     height="8"
     style="fill: rgb(199,6,9); stroke: black; stroke-width: 1px;"
     id="rect24" />
  <rect
     x="96"
     y="0"
     width="8"
     height="8"
     style="fill: rgb(199,6,9); stroke: black; stroke-width: 1px;"
     id="rect26" />
  <rect
     x="104"
     y="0"
     width="8"
     height="8"
     style="fill: rgb(199,6,9); stroke: black; stroke-width: 1px;"
     id="rect28" />
  <rect
     x="112"
     y="0"
     width="8"
     height="8"
     style="fill: rgb(199,6,9); stroke: black; stroke-width: 1px;"
     id="rect30" />
  <rect
     x="120"
     y="0"
     width="8"
     height="8"
     style="fill: rgb(199,6,9); stroke: black; stroke-width: 1px;"
     id="rect32" />
  <rect
     x="128"
     y="0"
     width="8"
     height="8"
     style="fill: rgb(166,139,61); stroke: black; stroke-width: 1px;"
     id="rect34" />
  <rect
     x="136"
     y="0"
     width="8"
     height="8"
     style="fill: rgb(166,139,61); stroke: black; stroke-width: 1px;"
     id="rect36" />
  <rect
     x="144"
     y="0"
     width="8"
     height="8"
     style="fill: rgb(166,139,61); stroke: black; stroke-width: 1px;"
     id="rect38" />
  <rect
     x="152"
     y="0"
     width="8"
     height="8"
     style="fill: rgb(166,139,61); stroke: black; stroke-width: 1px;"
     id="rect40" />
  <rect
     x="160"
     y="0"
     width="8"
     height="8"
     style="fill: rgb(166,139,61); stroke: black; stroke-width: 1px;"
     id="rect42" />
  <rect
     x="168"
     y="0"
     width="8"
     height="8"
     style="fill: rgb(166,139,61); stroke: black; stroke-width: 1px;"
     id="rect44" />
  <rect
     x="176"
     y="0"
     width="8"
     height="8"
     style="fill: rgb(166,139,61); stroke: black; stroke-width: 1px;"
     id="rect46" />
  <rect
     x="184"
     y="0"
     width="8"
     height="8"
     style="fill: rgb(166,139,61); stroke: black; stroke-width: 1px;"
     id="rect48" />
  <rect
     x="192"
     y="0"
     width="8"
     height="8"
     style="fill: rgb(166,139,61); stroke: black; stroke-width: 1px;"
     id="rect50" />
  <rect
     x="200"
     y="0"
     width="8"
     height="8"
     style="fill: rgb(166,139,61); stroke: black; stroke-width: 1px;"
     id="rect52" />
  <rect
     x="208"
     y="0"
     width="8"
     height="8"
     style="fill: rgb(166,139,61); stroke: black; stroke-width: 1px;"
     id="rect54" />
  <rect
     x="216"
     y="0"
     width="8"
     height="8"
     style="fill: rgb(166,139,61); stroke: black; stroke-width: 1px;"
     id="rect56" />
  <rect
     x="224"
     y="0"
     width="8"
     height="8"
     style="fill: rgb(0,0,0); stroke: black; stroke-width: 1px;"
     id="rect58" />
  <rect
     x="232"
     y="0"
     width="8"
     height="8"
     style="fill: rgb(166,139,61); stroke: black; stroke-width: 1px;"
     id="rect60" />
  <rect
     x="240"
     y="0"
     width="8"
     height="8"
     style="fill: rgb(0,0,0); stroke: black; stroke-width: 1px;"
     id="rect62" />
  <rect
     x="248"
     y="0"
     width="8"
     height="8"
     style="fill: rgb(166,139,61); stroke: black; stroke-width: 1px;"
     id="rect64" />
  <rect
     x="0"
     y="8"
     width="8"
     height="8"
     style="fill: rgb(199,6,9); stroke: black; stroke-width: 1px;"
     id="rect66" />
  <rect
     x="8"
     y="8"
     width="8"
     height="8"
     style="fill: rgb(255,127,2); stroke: black; stroke-width: 1px;"
     id="rect68" />
  <rect
     x="16"
     y="8"
     width="8"
     height="8"
     style="fill: rgb(199,6,9); stroke: black; stroke-width: 1px;"
     id="rect70" />
  <rect
     x="24"
     y="8"
     width="8"
     height="8"
     style="fill: rgb(255,127,2); stroke: black; stroke-width: 1px;"
     id="rect72" />
  <rect
     x="32"
     y="8"
     width="8"
     height="8"
     style="fill: rgb(199,6,9); stroke: black; stroke-width: 1px;"
     id="rect74" />
  <rect
     x="40"
     y="8"
     width="8"
     height="8"
     style="fill: rgb(199,6,9); stroke: black; stroke-width: 1px;"
     id="rect76" />
  <rect
     x="48"
     y="8"
     width="8"
     height="8"
     style="fill: rgb(199,6,9); stroke: black; stroke-width: 1px;"
     id="rect78" />
  <rect
     x="56"
     y="8"
     width="8"
     height="8"
     style="fill: rgb(255,255,255); stroke: black; stroke-width: 1px;"
     id="rect80" />
  <rect
     x="64"
     y="8"
     width="8"
     height="8"
     style="fill: rgb(255,255,255); stroke: black; stroke-width: 1px;"
     id="rect82" />
  <rect
     x="72"
     y="8"
     width="8"
     height="8"
     style="fill: rgb(255,255,255); stroke: black; stroke-width: 1px;"
     id="rect84" />
  <rect
     x="80"
     y="8"
     width="8"
     height="8"
     style="fill: rgb(199,6,9); stroke: black; stroke-width: 1px;"
     id="rect86" />
  <rect
     x="88"
     y="8"
     width="8"
     height="8"
     style="fill: rgb(255,255,255); stroke: black; stroke-width: 1px;"
     id="rect88" />
  <rect
     x="96"
     y="8"
     width="8"
     height="8"
     style="fill: rgb(199,6,9); stroke: black; stroke-width: 1px;"
     id="rect90" />
  <rect
     x="104"
     y="8"
     width="8"
     height="8"
     style="fill: rgb(255,255,255); stroke: black; stroke-width: 1px;"
     id="rect92" />
  <rect
     x="112"
     y="8"
     width="8"
     height="8"
     style="fill: rgb(199,6,9); stroke: black; stroke-width: 1px;"
     id="rect94" />
  <rect
     x="120"
     y="8"
     width="8"
     height="8"
     style="fill: rgb(199,6,9); stroke: black; stroke-width: 1px;"
     id="rect96" />
  <rect
     x="128"
     y="8"
     width="8"
     height="8"
     style="fill: rgb(166,139,61); stroke: black; stroke-width: 1px;"
     id="rect98" />
  <rect
     x="136"
     y="8"
     width="8"
     height="8"
     style="fill: rgb(166,139,61); stroke: black; stroke-width: 1px;"
     id="rect100" />
  <rect
     x="144"
     y="8"
     width="8"
     height="8"
     style="fill: rgb(255,255,255); stroke: black; stroke-width: 1px;"
     id="rect102" />
  <rect
     x="152"
     y="8"
     width="8"
     height="8"
     style="fill: rgb(255,255,255); stroke: black; stroke-width: 1px;"
     id="rect104" />
  <rect
     x="160"
     y="8"
     width="8"
     height="8"
     style="fill: rgb(255,255,255); stroke: black; stroke-width: 1px;"
     id="rect106" />
  <rect
     x="168"
     y="8"
     width="8"
     height="8"
     style="fill: rgb(166,139,61); stroke: black; stroke-width: 1px;"
     id="rect108" />
  <rect
     x="176"
     y="8"
     width="8"
     height="8"
     style="fill: rgb(255,255,255); stroke: black; stroke-width: 1px;"
     id="rect110" />
  <rect
     x="184"
     y="8"
     width="8"
     height="8"
     style="fill: rgb(255,255,255); stroke: black; stroke-width: 1px;"
     id="rect112" />
  <rect
     x="192"
     y="8"
     width="8"
     height="8"
     style="fill: rgb(255,255,255); stroke: black; stroke-width: 1px;"
     id="rect114" />
  <rect
     x="200"
     y="8"
     width="8"
     height="8"
     style="fill: rgb(166,139,61); stroke: black; stroke-width: 1px;"
     id="rect116" />
  <rect
     x="208"
     y="8"
     width="8"
     height="8"
     style="fill: rgb(166,139,61); stroke: black; stroke-width: 1px;"
     id="rect118" />
  <rect
     x="216"
     y="8"
     width="8"
     height="8"
     style="fill: rgb(166,139,61); stroke: black; stroke-width: 1px;"
     id="rect120" />
  <rect
     x="224"
     y="8"
     width="8"
     height="8"
     style="fill: rgb(0,0,0); stroke: black; stroke-width: 1px;"
     id="rect122" />
  <rect
     x="232"
     y="8"
     width="8"
     height="8"
     style="fill: rgb(166,139,61); stroke: black; stroke-width: 1px;"
     id="rect124" />
  <rect
     x="240"
     y="8"
     width="8"
     height="8"
     style="fill: rgb(0,0,0); stroke: black; stroke-width: 1px;"
     id="rect126" />
  <rect
     x="248"
     y="8"
     width="8"
     height="8"
     style="fill: rgb(166,139,61); stroke: black; stroke-width: 1px;"
     id="rect128" />
  <rect
     x="0"
     y="16"
     width="8"
     height="8"
     style="fill: rgb(199,6,9); stroke: black; stroke-width: 1px;"
     id="rect130" />
  <rect
     x="8"
     y="16"
     width="8"
     height="8"
     style="fill: rgb(255,127,2); stroke: black; stroke-width: 1px;"
     id="rect132" />
  <rect
     x="16"
     y="16"
     width="8"
     height="8"
     style="fill: rgb(199,6,9); stroke: black; stroke-width: 1px;"
     id="rect134" />
  <rect
     x="24"
     y="16"
     width="8"
     height="8"
     style="fill: rgb(255,127,2); stroke: black; stroke-width: 1px;"
     id="rect136" />
  <rect
     x="32"
     y="16"
     width="8"
     height="8"
     style="fill: rgb(199,6,9); stroke: black; stroke-width: 1px;"
     id="rect138" />
  <rect
     x="40"
     y="16"
     width="8"
     height="8"
     style="fill: rgb(199,6,9); stroke: black; stroke-width: 1px;"
     id="rect140" />
  <rect
     x="48"
     y="16"
     width="8"
     height="8"
     style="fill: rgb(199,6,9); stroke: black; stroke-width: 1px;"
     id="rect142" />
  <rect
     x="56"
     y="16"
     width="8"
     height="8"
     style="fill: rgb(199,6,9); stroke: black; stroke-width: 1px;"
     id="rect144" />
  <rect
     x="64"
     y="16"
     width="8"
     height="8"
     style="fill: rgb(199,6,9); stroke: black; stroke-width: 1px;"
     id="rect146" />
  <rect
     x="72"
     y="16"
     width="8"
     height="8"
     style="fill: rgb(255,255,255); stroke: black; stroke-width: 1px;"
     id="rect148" />
  <rect
     x="80"
     y="16"
     width="8"
     height="8"
     style="fill: rgb(199,6,9); stroke: black; stroke-width: 1px;"
     id="rect150" />
  <rect
     x="88"
     y="16"
     width="8"
     height="8"
     style="fill: rgb(255,255,255); stroke: black; stroke-width: 1px;"
     id="rect152" />
  <rect
     x="96"
     y="16"
     width="8"
     height="8"
     style="fill: rgb(199,6,9); stroke: black; stroke-width: 1px;"
     id="rect154" />
  <rect
     x="104"
     y="16"
     width="8"
     height="8"
     style="fill: rgb(255,255,255); stroke: black; stroke-width: 1px;"
     id="rect156" />
  <rect
     x="112"
     y="16"
     width="8"
     height="8"
     style="fill: rgb(199,6,9); stroke: black; stroke-width: 1px;"
     id="rect158" />
  <rect
     x="120"
     y="16"
     width="8"
     height="8"
     style="fill: rgb(199,6,9); stroke: black; stroke-width: 1px;"
     id="rect160" />
  <rect
     x="128"
     y="16"
     width="8"
     height="8"
     style="fill: rgb(166,139,61); stroke: black; stroke-width: 1px;"
     id="rect162" />
  <rect
     x="136"
     y="16"
     width="8"
     height="8"
     style="fill: rgb(166,139,61); stroke: black; stroke-width: 1px;"
     id="rect164" />
  <rect
     x="144"
     y="16"
     width="8"
     height="8"
     style="fill: rgb(166,139,61); stroke: black; stroke-width: 1px;"
     id="rect166" />
  <rect
     x="152"
     y="16"
     width="8"
     height="8"
     style="fill: rgb(166,139,61); stroke: black; stroke-width: 1px;"
     id="rect168" />
  <rect
     x="160"
     y="16"
     width="8"
     height="8"
     style="fill: rgb(255,255,255); stroke: black; stroke-width: 1px;"
     id="rect170" />
  <rect
     x="168"
     y="16"
     width="8"
     height="8"
     style="fill: rgb(166,139,61); stroke: black; stroke-width: 1px;"
     id="rect172" />
  <rect
     x="176"
     y="16"
     width="8"
     height="8"
     style="fill: rgb(255,255,255); stroke: black; stroke-width: 1px;"
     id="rect174" />
  <rect
     x="184"
     y="16"
     width="8"
     height="8"
     style="fill: rgb(166,139,61); stroke: black; stroke-width: 1px;"
     id="rect176" />
  <rect
     x="192"
     y="16"
     width="8"
     height="8"
     style="fill: rgb(166,139,61); stroke: black; stroke-width: 1px;"
     id="rect178" />
  <rect
     x="200"
     y="16"
     width="8"
     height="8"
     style="fill: rgb(166,139,61); stroke: black; stroke-width: 1px;"
     id="rect180" />
  <rect
     x="208"
     y="16"
     width="8"
     height="8"
     style="fill: rgb(166,139,61); stroke: black; stroke-width: 1px;"
     id="rect182" />
  <rect
     x="216"
     y="16"
     width="8"
     height="8"
     style="fill: rgb(166,139,61); stroke: black; stroke-width: 1px;"
     id="rect184" />
  <rect
     x="224"
     y="16"
     width="8"
     height="8"
     style="fill: rgb(0,0,0); stroke: black; stroke-width: 1px;"
     id="rect186" />
  <rect
     x="232"
     y="16"
     width="8"
     height="8"
     style="fill: rgb(166,139,61); stroke: black; stroke-width: 1px;"
     id="rect188" />
  <rect
     x="240"
     y="16"
     width="8"
     height="8"
     style="fill: rgb(0,0,0); stroke: black; stroke-width: 1px;"
     id="rect190" />
  <rect
     x="248"
     y="16"
     width="8"
     height="8"
     style="fill: rgb(166,139,61); stroke: black; stroke-width: 1px;"
     id="rect192" />
  <rect
     x="0"
     y="24"
     width="8"
     height="8"
     style="fill: rgb(199,6,9); stroke: black; stroke-width: 1px;"
     id="rect194" />
  <rect
     x="8"
     y="24"
     width="8"
     height="8"
     style="fill: rgb(255,127,2); stroke: black; stroke-width: 1px;"
     id="rect196" />
  <rect
     x="16"
     y="24"
     width="8"
     height="8"
     style="fill: rgb(199,6,9); stroke: black; stroke-width: 1px;"
     id="rect198" />
  <rect
     x="24"
     y="24"
     width="8"
     height="8"
     style="fill: rgb(255,127,2); stroke: black; stroke-width: 1px;"
     id="rect200" />
  <rect
     x="32"
     y="24"
     width="8"
     height="8"
     style="fill: rgb(199,6,9); stroke: black; stroke-width: 1px;"
     id="rect202" />
  <rect
     x="40"
     y="24"
     width="8"
     height="8"
     style="fill: rgb(199,6,9); stroke: black; stroke-width: 1px;"
     id="rect204" />
  <rect
     x="48"
     y="24"
     width="8"
     height="8"
     style="fill: rgb(199,6,9); stroke: black; stroke-width: 1px;"
     id="rect206" />
  <rect
     x="56"
     y="24"
     width="8"
     height="8"
     style="fill: rgb(255,255,255); stroke: black; stroke-width: 1px;"
     id="rect208" />
  <rect
     x="64"
     y="24"
     width="8"
     height="8"
     style="fill: rgb(255,255,255); stroke: black; stroke-width: 1px;"
     id="rect210" />
  <rect
     x="72"
     y="24"
     width="8"
     height="8"
     style="fill: rgb(255,255,255); stroke: black; stroke-width: 1px;"
     id="rect212" />
  <rect
     x="80"
     y="24"
     width="8"
     height="8"
     style="fill: rgb(199,6,9); stroke: black; stroke-width: 1px;"
     id="rect214" />
  <rect
     x="88"
     y="24"
     width="8"
     height="8"
     style="fill: rgb(255,255,255); stroke: black; stroke-width: 1px;"
     id="rect216" />
  <rect
     x="96"
     y="24"
     width="8"
     height="8"
     style="fill: rgb(255,255,255); stroke: black; stroke-width: 1px;"
     id="rect218" />
  <rect
     x="104"
     y="24"
     width="8"
     height="8"
     style="fill: rgb(255,255,255); stroke: black; stroke-width: 1px;"
     id="rect220" />
  <rect
     x="112"
     y="24"
     width="8"
     height="8"
     style="fill: rgb(199,6,9); stroke: black; stroke-width: 1px;"
     id="rect222" />
  <rect
     x="120"
     y="24"
     width="8"
     height="8"
     style="fill: rgb(255,255,255); stroke: black; stroke-width: 1px;"
     id="rect224" />
  <rect
     x="128"
     y="24"
     width="8"
     height="8"
     style="fill: rgb(255,255,255); stroke: black; stroke-width: 1px;"
     id="rect226" />
  <rect
     x="136"
     y="24"
     width="8"
     height="8"
     style="fill: rgb(166,139,61); stroke: black; stroke-width: 1px;"
     id="rect228" />
  <rect
     x="144"
     y="24"
     width="8"
     height="8"
     style="fill: rgb(255,255,255); stroke: black; stroke-width: 1px;"
     id="rect230" />
  <rect
     x="152"
     y="24"
     width="8"
     height="8"
     style="fill: rgb(255,255,255); stroke: black; stroke-width: 1px;"
     id="rect232" />
  <rect
     x="160"
     y="24"
     width="8"
     height="8"
     style="fill: rgb(255,255,255); stroke: black; stroke-width: 1px;"
     id="rect234" />
  <rect
     x="168"
     y="24"
     width="8"
     height="8"
     style="fill: rgb(166,139,61); stroke: black; stroke-width: 1px;"
     id="rect236" />
  <rect
     x="176"
     y="24"
     width="8"
     height="8"
     style="fill: rgb(255,255,255); stroke: black; stroke-width: 1px;"
     id="rect238" />
  <rect
     x="184"
     y="24"
     width="8"
     height="8"
     style="fill: rgb(255,255,255); stroke: black; stroke-width: 1px;"
     id="rect240" />
  <rect
     x="192"
     y="24"
     width="8"
     height="8"
     style="fill: rgb(255,255,255); stroke: black; stroke-width: 1px;"
     id="rect242" />
  <rect
     x="200"
     y="24"
     width="8"
     height="8"
     style="fill: rgb(166,139,61); stroke: black; stroke-width: 1px;"
     id="rect244" />
  <rect
     x="208"
     y="24"
     width="8"
     height="8"
     style="fill: rgb(166,139,61); stroke: black; stroke-width: 1px;"
     id="rect246" />
  <rect
     x="216"
     y="24"
     width="8"
     height="8"
     style="fill: rgb(166,139,61); stroke: black; stroke-width: 1px;"
     id="rect248" />
  <rect
     x="224"
     y="24"
     width="8"
     height="8"
     style="fill: rgb(0,0,0); stroke: black; stroke-width: 1px;"
     id="rect250" />
  <rect
     x="232"
     y="24"
     width="8"
     height="8"
     style="fill: rgb(166,139,61); stroke: black; stroke-width: 1px;"
     id="rect252" />
  <rect
     x="240"
     y="24"
     width="8"
     height="8"
     style="fill: rgb(0,0,0); stroke: black; stroke-width: 1px;"
     id="rect254" />
  <rect
     x="248"
     y="24"
     width="8"
     height="8"
     style="fill: rgb(166,139,61); stroke: black; stroke-width: 1px;"
     id="rect256" />
  <rect
     x="0"
     y="32"
     width="8"
     height="8"
     style="fill: rgb(199,6,9); stroke: black; stroke-width: 1px;"
     id="rect258" />
  <rect
     x="8"
     y="32"
     width="8"
     height="8"
     style="fill: rgb(255,127,2); stroke: black; stroke-width: 1px;"
     id="rect260" />
  <rect
     x="16"
     y="32"
     width="8"
     height="8"
     style="fill: rgb(199,6,9); stroke: black; stroke-width: 1px;"
     id="rect262" />
  <rect
     x="24"
     y="32"
     width="8"
     height="8"
     style="fill: rgb(255,127,2); stroke: black; stroke-width: 1px;"
     id="rect264" />
  <rect
     x="32"
     y="32"
     width="8"
     height="8"
     style="fill: rgb(199,6,9); stroke: black; stroke-width: 1px;"
     id="rect266" />
  <rect
     x="40"
     y="32"
     width="8"
     height="8"
     style="fill: rgb(199,6,9); stroke: black; stroke-width: 1px;"
     id="rect268" />
  <rect
     x="48"
     y="32"
     width="8"
     height="8"
     style="fill: rgb(199,6,9); stroke: black; stroke-width: 1px;"
     id="rect270" />
  <rect
     x="56"
     y="32"
     width="8"
     height="8"
     style="fill: rgb(255,255,255); stroke: black; stroke-width: 1px;"
     id="rect272" />
  <rect
     x="64"
     y="32"
     width="8"
     height="8"
     style="fill: rgb(199,6,9); stroke: black; stroke-width: 1px;"
     id="rect274" />
  <rect
     x="72"
     y="32"
     width="8"
     height="8"
     style="fill: rgb(199,6,9); stroke: black; stroke-width: 1px;"
     id="rect276" />
  <rect
     x="80"
     y="32"
     width="8"
     height="8"
     style="fill: rgb(199,6,9); stroke: black; stroke-width: 1px;"
     id="rect278" />
  <rect
     x="88"
     y="32"
     width="8"
     height="8"
     style="fill: rgb(199,6,9); stroke: black; stroke-width: 1px;"
     id="rect280" />
  <rect
     x="96"
     y="32"
     width="8"
     height="8"
     style="fill: rgb(199,6,9); stroke: black; stroke-width: 1px;"
     id="rect282" />
  <rect
     x="104"
     y="32"
     width="8"
     height="8"
     style="fill: rgb(255,255,255); stroke: black; stroke-width: 1px;"
     id="rect284" />
  <rect
     x="112"
     y="32"
     width="8"
     height="8"
     style="fill: rgb(199,6,9); stroke: black; stroke-width: 1px;"
     id="rect286" />
  <rect
     x="120"
     y="32"
     width="8"
     height="8"
     style="fill: rgb(199,6,9); stroke: black; stroke-width: 1px;"
     id="rect288" />
  <rect
     x="128"
     y="32"
     width="8"
     height="8"
     style="fill: rgb(166,139,61); stroke: black; stroke-width: 1px;"
     id="rect290" />
  <rect
     x="136"
     y="32"
     width="8"
     height="8"
     style="fill: rgb(166,139,61); stroke: black; stroke-width: 1px;"
     id="rect292" />
  <rect
     x="144"
     y="32"
     width="8"
     height="8"
     style="fill: rgb(255,255,255); stroke: black; stroke-width: 1px;"
     id="rect294" />
  <rect
     x="152"
     y="32"
     width="8"
     height="8"
     style="fill: rgb(166,139,61); stroke: black; stroke-width: 1px;"
     id="rect296" />
  <rect
     x="160"
     y="32"
     width="8"
     height="8"
     style="fill: rgb(166,139,61); stroke: black; stroke-width: 1px;"
     id="rect298" />
  <rect
     x="168"
     y="32"
     width="8"
     height="8"
     style="fill: rgb(166,139,61); stroke: black; stroke-width: 1px;"
     id="rect300" />
  <rect
     x="176"
     y="32"
     width="8"
     height="8"
     style="fill: rgb(255,255,255); stroke: black; stroke-width: 1px;"
     id="rect302" />
  <rect
     x="184"
     y="32"
     width="8"
     height="8"
     style="fill: rgb(166,139,61); stroke: black; stroke-width: 1px;"
     id="rect304" />
  <rect
     x="192"
     y="32"
     width="8"
     height="8"
     style="fill: rgb(255,255,255); stroke: black; stroke-width: 1px;"
     id="rect306" />
  <rect
     x="200"
     y="32"
     width="8"
     height="8"
     style="fill: rgb(166,139,61); stroke: black; stroke-width: 1px;"
     id="rect308" />
  <rect
     x="208"
     y="32"
     width="8"
     height="8"
     style="fill: rgb(166,139,61); stroke: black; stroke-width: 1px;"
     id="rect310" />
  <rect
     x="216"
     y="32"
     width="8"
     height="8"
     style="fill: rgb(166,139,61); stroke: black; stroke-width: 1px;"
     id="rect312" />
  <rect
     x="224"
     y="32"
     width="8"
     height="8"
     style="fill: rgb(0,0,0); stroke: black; stroke-width: 1px;"
     id="rect314" />
  <rect
     x="232"
     y="32"
     width="8"
     height="8"
     style="fill: rgb(166,139,61); stroke: black; stroke-width: 1px;"
     id="rect316" />
  <rect
     x="240"
     y="32"
     width="8"
     height="8"
     style="fill: rgb(0,0,0); stroke: black; stroke-width: 1px;"
     id="rect318" />
  <rect
     x="248"
     y="32"
     width="8"
     height="8"
     style="fill: rgb(166,139,61); stroke: black; stroke-width: 1px;"
     id="rect320" />
  <rect
     x="0"
     y="40"
     width="8"
     height="8"
     style="fill: rgb(199,6,9); stroke: black; stroke-width: 1px;"
     id="rect322" />
  <rect
     x="8"
     y="40"
     width="8"
     height="8"
     style="fill: rgb(255,127,2); stroke: black; stroke-width: 1px;"
     id="rect324" />
  <rect
     x="16"
     y="40"
     width="8"
     height="8"
     style="fill: rgb(199,6,9); stroke: black; stroke-width: 1px;"
     id="rect326" />
  <rect
     x="24"
     y="40"
     width="8"
     height="8"
     style="fill: rgb(255,127,2); stroke: black; stroke-width: 1px;"
     id="rect328" />
  <rect
     x="32"
     y="40"
     width="8"
     height="8"
     style="fill: rgb(199,6,9); stroke: black; stroke-width: 1px;"
     id="rect330" />
  <rect
     x="40"
     y="40"
     width="8"
     height="8"
     style="fill: rgb(199,6,9); stroke: black; stroke-width: 1px;"
     id="rect332" />
  <rect
     x="48"
     y="40"
     width="8"
     height="8"
     style="fill: rgb(199,6,9); stroke: black; stroke-width: 1px;"
     id="rect334" />
  <rect
     x="56"
     y="40"
     width="8"
     height="8"
     style="fill: rgb(255,255,255); stroke: black; stroke-width: 1px;"
     id="rect336" />
  <rect
     x="64"
     y="40"
     width="8"
     height="8"
     style="fill: rgb(255,255,255); stroke: black; stroke-width: 1px;"
     id="rect338" />
  <rect
     x="72"
     y="40"
     width="8"
     height="8"
     style="fill: rgb(255,255,255); stroke: black; stroke-width: 1px;"
     id="rect340" />
  <rect
     x="80"
     y="40"
     width="8"
     height="8"
     style="fill: rgb(199,6,9); stroke: black; stroke-width: 1px;"
     id="rect342" />
  <rect
     x="88"
     y="40"
     width="8"
     height="8"
     style="fill: rgb(199,6,9); stroke: black; stroke-width: 1px;"
     id="rect344" />
  <rect
     x="96"
     y="40"
     width="8"
     height="8"
     style="fill: rgb(199,6,9); stroke: black; stroke-width: 1px;"
     id="rect346" />
  <rect
     x="104"
     y="40"
     width="8"
     height="8"
     style="fill: rgb(255,255,255); stroke: black; stroke-width: 1px;"
     id="rect348" />
  <rect
     x="112"
     y="40"
     width="8"
     height="8"
     style="fill: rgb(199,6,9); stroke: black; stroke-width: 1px;"
     id="rect350" />
  <rect
     x="120"
     y="40"
     width="8"
     height="8"
     style="fill: rgb(199,6,9); stroke: black; stroke-width: 1px;"
     id="rect352" />
  <rect
     x="128"
     y="40"
     width="8"
     height="8"
     style="fill: rgb(166,139,61); stroke: black; stroke-width: 1px;"
     id="rect354" />
  <rect
     x="136"
     y="40"
     width="8"
     height="8"
     style="fill: rgb(166,139,61); stroke: black; stroke-width: 1px;"
     id="rect356" />
  <rect
     x="144"
     y="40"
     width="8"
     height="8"
     style="fill: rgb(255,255,255); stroke: black; stroke-width: 1px;"
     id="rect358" />
  <rect
     x="152"
     y="40"
     width="8"
     height="8"
     style="fill: rgb(255,255,255); stroke: black; stroke-width: 1px;"
     id="rect360" />
  <rect
     x="160"
     y="40"
     width="8"
     height="8"
     style="fill: rgb(255,255,255); stroke: black; stroke-width: 1px;"
     id="rect362" />
  <rect
     x="168"
     y="40"
     width="8"
     height="8"
     style="fill: rgb(166,139,61); stroke: black; stroke-width: 1px;"
     id="rect364" />
  <rect
     x="176"
     y="40"
     width="8"
     height="8"
     style="fill: rgb(255,255,255); stroke: black; stroke-width: 1px;"
     id="rect366" />
  <rect
     x="184"
     y="40"
     width="8"
     height="8"
     style="fill: rgb(255,255,255); stroke: black; stroke-width: 1px;"
     id="rect368" />
  <rect
     x="192"
     y="40"
     width="8"
     height="8"
     style="fill: rgb(255,255,255); stroke: black; stroke-width: 1px;"
     id="rect370" />
  <rect
     x="200"
     y="40"
     width="8"
     height="8"
     style="fill: rgb(166,139,61); stroke: black; stroke-width: 1px;"
     id="rect372" />
  <rect
     x="208"
     y="40"
     width="8"
     height="8"
     style="fill: rgb(166,139,61); stroke: black; stroke-width: 1px;"
     id="rect374" />
  <rect
     x="216"
     y="40"
     width="8"
     height="8"
     style="fill: rgb(166,139,61); stroke: black; stroke-width: 1px;"
     id="rect376" />
  <rect
     x="224"
     y="40"
     width="8"
     height="8"
     style="fill: rgb(0,0,0); stroke: black; stroke-width: 1px;"
     id="rect378" />
  <rect
     x="232"
     y="40"
     width="8"
     height="8"
     style="fill: rgb(166,139,61); stroke: black; stroke-width: 1px;"
     id="rect380" />
  <rect
     x="240"
     y="40"
     width="8"
     height="8"
     style="fill: rgb(0,0,0); stroke: black; stroke-width: 1px;"
     id="rect382" />
  <rect
     x="248"
     y="40"
     width="8"
     height="8"
     style="fill: rgb(166,139,61); stroke: black; stroke-width: 1px;"
     id="rect384" />
  <rect
     x="0"
     y="48"
     width="8"
     height="8"
     style="fill: rgb(199,6,9); stroke: black; stroke-width: 1px;"
     id="rect386" />
  <rect
     x="8"
     y="48"
     width="8"
     height="8"
     style="fill: rgb(255,127,2); stroke: black; stroke-width: 1px;"
     id="rect388" />
  <rect
     x="16"
     y="48"
     width="8"
     height="8"
     style="fill: rgb(199,6,9); stroke: black; stroke-width: 1px;"
     id="rect390" />
  <rect
     x="24"
     y="48"
     width="8"
     height="8"
     style="fill: rgb(255,127,2); stroke: black; stroke-width: 1px;"
     id="rect392" />
  <rect
     x="32"
     y="48"
     width="8"
     height="8"
     style="fill: rgb(199,6,9); stroke: black; stroke-width: 1px;"
     id="rect394" />
  <rect
     x="40"
     y="48"
     width="8"
     height="8"
     style="fill: rgb(199,6,9); stroke: black; stroke-width: 1px;"
     id="rect396" />
  <rect
     x="48"
     y="48"
     width="8"
     height="8"
     style="fill: rgb(199,6,9); stroke: black; stroke-width: 1px;"
     id="rect398" />
  <rect
     x="56"
     y="48"
     width="8"
     height="8"
     style="fill: rgb(199,6,9); stroke: black; stroke-width: 1px;"
     id="rect400" />
  <rect
     x="64"
     y="48"
     width="8"
     height="8"
     style="fill: rgb(199,6,9); stroke: black; stroke-width: 1px;"
     id="rect402" />
  <rect
     x="72"
     y="48"
     width="8"
     height="8"
     style="fill: rgb(199,6,9); stroke: black; stroke-width: 1px;"
     id="rect404" />
  <rect
     x="80"
     y="48"
     width="8"
     height="8"
     style="fill: rgb(199,6,9); stroke: black; stroke-width: 1px;"
     id="rect406" />
  <rect
     x="88"
     y="48"
     width="8"
     height="8"
     style="fill: rgb(199,6,9); stroke: black; stroke-width: 1px;"
     id="rect408" />
  <rect
     x="96"
     y="48"
     width="8"
     height="8"
     style="fill: rgb(199,6,9); stroke: black; stroke-width: 1px;"
     id="rect410" />
  <rect
     x="104"
     y="48"
     width="8"
     height="8"
     style="fill: rgb(199,6,9); stroke: black; stroke-width: 1px;"
     id="rect412" />
  <rect
     x="112"
     y="48"
     width="8"
     height="8"
     style="fill: rgb(199,6,9); stroke: black; stroke-width: 1px;"
     id="rect414" />
  <rect
     x="120"
     y="48"
     width="8"
     height="8"
     style="fill: rgb(199,6,9); stroke: black; stroke-width: 1px;"
     id="rect416" />
  <rect
     x="128"
     y="48"
     width="8"
     height="8"
     style="fill: rgb(166,139,61); stroke: black; stroke-width: 1px;"
     id="rect418" />
  <rect
     x="136"
     y="48"
     width="8"
     height="8"
     style="fill: rgb(166,139,61); stroke: black; stroke-width: 1px;"
     id="rect420" />
  <rect
     x="144"
     y="48"
     width="8"
     height="8"
     style="fill: rgb(166,139,61); stroke: black; stroke-width: 1px;"
     id="rect422" />
  <rect
     x="152"
     y="48"
     width="8"
     height="8"
     style="fill: rgb(166,139,61); stroke: black; stroke-width: 1px;"
     id="rect424" />
  <rect
     x="160"
     y="48"
     width="8"
     height="8"
     style="fill: rgb(166,139,61); stroke: black; stroke-width: 1px;"
     id="rect426" />
  <rect
     x="168"
     y="48"
     width="8"
     height="8"
     style="fill: rgb(166,139,61); stroke: black; stroke-width: 1px;"
     id="rect428" />
  <rect
     x="176"
     y="48"
     width="8"
     height="8"
     style="fill: rgb(166,139,61); stroke: black; stroke-width: 1px;"
     id="rect430" />
  <rect
     x="184"
     y="48"
     width="8"
     height="8"
     style="fill: rgb(166,139,61); stroke: black; stroke-width: 1px;"
     id="rect432" />
  <rect
     x="192"
     y="48"
     width="8"
     height="8"
     style="fill: rgb(166,139,61); stroke: black; stroke-width: 1px;"
     id="rect434" />
  <rect
     x="200"
     y="48"
     width="8"
     height="8"
     style="fill: rgb(166,139,61); stroke: black; stroke-width: 1px;"
     id="rect436" />
  <rect
     x="208"
     y="48"
     width="8"
     height="8"
     style="fill: rgb(166,139,61); stroke: black; stroke-width: 1px;"
     id="rect438" />
  <rect
     x="216"
     y="48"
     width="8"
     height="8"
     style="fill: rgb(166,139,61); stroke: black; stroke-width: 1px;"
     id="rect440" />
  <rect
     x="224"
     y="48"
     width="8"
     height="8"
     style="fill: rgb(0,0,0); stroke: black; stroke-width: 1px;"
     id="rect442" />
  <rect
     x="232"
     y="48"
     width="8"
     height="8"
     style="fill: rgb(166,139,61); stroke: black; stroke-width: 1px;"
     id="rect444" />
  <rect
     x="240"
     y="48"
     width="8"
     height="8"
     style="fill: rgb(0,0,0); stroke: black; stroke-width: 1px;"
     id="rect446" />
  <rect
     x="248"
     y="48"
     width="8"
     height="8"
     style="fill: rgb(166,139,61); stroke: black; stroke-width: 1px;"
     id="rect448" />
  <rect
     x="0"
     y="56"
     width="8"
     height="8"
     style="fill: rgb(199,6,9); stroke: black; stroke-width: 1px;"
     id="rect450" />
  <rect
     x="8"
     y="56"
     width="8"
     height="8"
     style="fill: rgb(255,127,2); stroke: black; stroke-width: 1px;"
     id="rect452" />
  <rect
     x="16"
     y="56"
     width="8"
     height="8"
     style="fill: rgb(199,6,9); stroke: black; stroke-width: 1px;"
     id="rect454" />
  <rect
     x="24"
     y="56"
     width="8"
     height="8"
     style="fill: rgb(255,127,2); stroke: black; stroke-width: 1px;"
     id="rect456" />
  <rect
     x="32"
     y="56"
     width="8"
     height="8"
     style="fill: rgb(199,6,9); stroke: black; stroke-width: 1px;"
     id="rect458" />
  <rect
     x="40"
     y="56"
     width="8"
     height="8"
     style="fill: rgb(199,6,9); stroke: black; stroke-width: 1px;"
     id="rect460" />
  <rect
     x="48"
     y="56"
     width="8"
     height="8"
     style="fill: rgb(199,6,9); stroke: black; stroke-width: 1px;"
     id="rect462" />
  <rect
     x="56"
     y="56"
     width="8"
     height="8"
     style="fill: rgb(199,6,9); stroke: black; stroke-width: 1px;"
     id="rect464" />
  <rect
     x="64"
     y="56"
     width="8"
     height="8"
     style="fill: rgb(199,6,9); stroke: black; stroke-width: 1px;"
     id="rect466" />
  <rect
     x="72"
     y="56"
     width="8"
     height="8"
     style="fill: rgb(199,6,9); stroke: black; stroke-width: 1px;"
     id="rect468" />
  <rect
     x="80"
     y="56"
     width="8"
     height="8"
     style="fill: rgb(199,6,9); stroke: black; stroke-width: 1px;"
     id="rect470" />
  <rect
     x="88"
     y="56"
     width="8"
     height="8"
     style="fill: rgb(199,6,9); stroke: black; stroke-width: 1px;"
     id="rect472" />
  <rect
     x="96"
     y="56"
     width="8"
     height="8"
     style="fill: rgb(255,255,255); stroke: black; stroke-width: 1px;"
     id="rect474" />
  <rect
     x="104"
     y="56"
     width="8"
     height="8"
     style="fill: rgb(199,6,9); stroke: black; stroke-width: 1px;"
     id="rect476" />
  <rect
     x="112"
     y="56"
     width="8"
     height="8"
     style="fill:#ffffff;stroke:black;stroke-width:1px"
     id="rect478" />
  <rect
     x="120"
     y="56"
     width="8"
     height="8"
     style="fill: rgb(199,6,9); stroke: black; stroke-width: 1px;"
     id="rect480" />
  <rect
     x="128"
     y="56"
     width="8"
     height="8"
     style="fill: rgb(166,139,61); stroke: black; stroke-width: 1px;"
     id="rect482" />
  <rect
     x="136"
     y="56"
     width="8"
     height="8"
     style="fill:#ffffff;stroke:black;stroke-width:1px"
     id="rect484" />
  <rect
     x="144"
     y="56"
     width="8"
     height="8"
     style="fill: rgb(166,139,61); stroke: black; stroke-width: 1px;"
     id="rect486" />
  <rect
     x="152"
     y="56"
     width="8"
     height="8"
     style="fill:#ffffff;stroke:black;stroke-width:1px"
     id="rect488" />
  <rect
     x="160"
     y="56"
     width="8"
     height="8"
     style="fill: rgb(166,139,61); stroke: black; stroke-width: 1px;"
     id="rect490" />
  <rect
     x="168"
     y="56"
     width="8"
     height="8"
     style="fill: rgb(166,139,61); stroke: black; stroke-width: 1px;"
     id="rect492" />
  <rect
     x="176"
     y="56"
     width="8"
     height="8"
     style="fill: rgb(166,139,61); stroke: black; stroke-width: 1px;"
     id="rect494" />
  <rect
     x="184"
     y="56"
     width="8"
     height="8"
     style="fill: rgb(166,139,61); stroke: black; stroke-width: 1px;"
     id="rect496" />
  <rect
     x="192"
     y="56"
     width="8"
     height="8"
     style="fill: rgb(166,139,61); stroke: black; stroke-width: 1px;"
     id="rect498" />
  <rect
     x="200"
     y="56"
     width="8"
     height="8"
     style="fill: rgb(166,139,61); stroke: black; stroke-width: 1px;"
     id="rect500" />
  <rect
     x="208"
     y="56"
     width="8"
     height="8"
     style="fill: rgb(166,139,61); stroke: black; stroke-width: 1px;"
     id="rect502" />
  <rect
     x="216"
     y="56"
     width="8"
     height="8"
     style="fill: rgb(166,139,61); stroke: black; stroke-width: 1px;"
     id="rect504" />
  <rect
     x="224"
     y="56"
     width="8"
     height="8"
     style="fill: rgb(0,0,0); stroke: black; stroke-width: 1px;"
     id="rect506" />
  <rect
     x="232"
     y="56"
     width="8"
     height="8"
     style="fill: rgb(166,139,61); stroke: black; stroke-width: 1px;"
     id="rect508" />
  <rect
     x="240"
     y="56"
     width="8"
     height="8"
     style="fill: rgb(0,0,0); stroke: black; stroke-width: 1px;"
     id="rect510" />
  <rect
     x="248"
     y="56"
     width="8"
     height="8"
     style="fill: rgb(166,139,61); stroke: black; stroke-width: 1px;"
     id="rect512" />
</svg>
